<?xml version="1.0" standalone="no"?>
<!DOCTYPE svg PUBLIC "-//W3C//DTD SVG 20010904//EN"
 "http://www.w3.org/TR/2001/REC-SVG-20010904/DTD/svg10.dtd">
<svg version="1.0" xmlns="http://www.w3.org/2000/svg"
 width="1740.000000pt" height="699.000000pt" viewBox="0 0 1740.000000 699.000000"
 preserveAspectRatio="xMidYMid meet">

<g transform="translate(0.000000,699.000000) scale(0.100000,-0.100000)"
fill="#000000" stroke="none">
<path d="M5543 6973 c-29 -11 -8 -54 87 -178 55 -71 100 -132 100 -136 0 -4
-26 -15 -57 -23 -146 -40 -601 -196 -923 -316 -195 -73 -402 -149 -460 -170
l-106 -38 -39 30 c-98 74 -400 269 -505 325 -274 147 -575 248 -880 295 -55 8
-180 13 -355 13 -233 -1 -288 -4 -399 -23 -482 -84 -938 -272 -1415 -586 -219
-145 -436 -315 -420 -330 2 -2 362 -103 801 -225 l796 -220 80 29 c301 110
549 123 876 48 l90 -21 -30 -14 c-209 -105 -721 -417 -1103 -671 -210 -140
-232 -157 -215 -169 10 -7 253 -181 539 -386 l520 -374 25 17 c153 105 1253
706 1271 694 23 -14 141 -274 184 -405 90 -275 124 -475 132 -779 6 -232 -2
-337 -40 -527 l-23 -112 485 -348 c267 -191 509 -365 538 -386 l52 -37 40 125
c74 231 123 464 153 720 19 166 15 644 -6 840 -53 484 -177 950 -356 1341
l-39 84 37 16 c158 66 1149 380 1162 368 2 -3 12 -86 21 -184 16 -182 24 -210
60 -210 23 0 1284 1429 1317 1493 38 72 10 117 -89 140 -71 17 -1826 297
-1857 296 -21 0 -43 -3 -49 -6z"/>
<path d="M9755 4091 c-44 -11 -70 -27 -99 -61 -36 -44 -49 -100 -49 -218 0
-96 -2 -103 -21 -107 -12 -2 -47 -9 -78 -15 -68 -13 -104 -40 -129 -94 -41
-90 -9 -193 71 -233 24 -13 61 -23 82 -23 25 0 45 -7 58 -20 20 -20 20 -31 18
-333 -1 -261 1 -324 15 -387 37 -167 134 -298 271 -366 104 -51 209 -66 420
-62 161 3 174 4 215 28 117 67 108 251 -15 311 -42 20 -62 22 -208 23 -185 1
-216 11 -251 81 -19 37 -20 64 -23 378 l-3 337 23 1 c13 1 100 2 193 3 178 2
209 7 253 49 37 35 53 74 53 132 0 57 -10 85 -45 123 -46 52 -68 57 -276 62
l-195 5 -5 125 c-5 102 -10 133 -28 167 -43 82 -141 119 -247 94z"/>
<path d="M6690 3751 c-306 -67 -502 -255 -432 -413 23 -52 61 -82 126 -100 65
-17 121 0 231 72 117 77 151 90 228 90 159 0 277 -94 281 -223 l1 -52 -245 -6
c-212 -5 -255 -9 -320 -28 -271 -80 -429 -279 -406 -509 18 -178 142 -342 303
-402 106 -40 125 -40 743 -12 218 10 259 21 309 77 17 20 33 54 40 85 14 64
15 787 1 885 -28 196 -136 351 -320 458 -25 14 -87 40 -139 57 -124 42 -273
50 -401 21z m428 -944 c8 -7 12 -51 12 -157 l0 -147 -27 -13 c-17 -9 -76 -15
-153 -18 -138 -4 -256 14 -300 46 -94 70 -93 209 1 258 60 30 93 36 254 43
166 6 191 5 213 -12z"/>
<path d="M11294 3756 c-239 -55 -435 -223 -511 -437 -23 -64 -27 -96 -32 -239
-9 -243 1 -389 32 -478 63 -182 207 -324 403 -398 264 -99 636 -59 825 90 137
108 145 272 16 337 -66 34 -139 23 -262 -40 -176 -90 -297 -102 -426 -45 -92
42 -159 136 -159 225 l0 28 413 4 c445 4 462 5 521 58 68 59 90 185 62 349
-45 254 -220 444 -491 530 -90 29 -298 37 -391 16z m294 -378 c64 -30 135
-103 157 -162 32 -83 40 -81 -284 -84 l-281 -2 0 32 c0 18 10 53 21 78 65 144
240 207 387 138z"/>
<path d="M13173 3725 c-82 -22 -149 -61 -200 -115 -54 -57 -76 -62 -92 -21 -7
15 -27 42 -44 59 -108 105 -285 72 -348 -63 -17 -38 -19 -78 -19 -654 l0 -613
26 -49 c39 -71 90 -103 174 -107 101 -6 171 34 211 123 17 37 19 73 19 438 0
263 4 413 11 443 15 58 93 145 152 169 31 13 84 20 202 24 144 6 164 9 203 31
143 81 107 285 -58 334 -65 19 -166 20 -237 1z"/>
<path d="M8261 3719 c-125 -24 -243 -81 -319 -152 -63 -61 -97 -115 -123 -198
-18 -56 -19 -99 -19 -563 0 -500 0 -502 23 -546 67 -134 281 -145 364 -18 l28
41 6 451 c6 472 7 487 53 556 59 90 260 117 388 52 45 -23 57 -36 83 -87 l30
-60 0 -425 c1 -446 2 -463 47 -537 29 -49 114 -87 181 -81 107 9 176 69 197
175 8 38 10 180 7 472 -4 347 -7 427 -21 481 -60 230 -215 385 -433 434 -79
18 -411 21 -492 5z"/>
</g>
</svg>
