<?xml version="1.0" standalone="no"?>
<!DOCTYPE svg PUBLIC "-//W3C//DTD SVG 20010904//EN"
 "http://www.w3.org/TR/2001/REC-SVG-20010904/DTD/svg10.dtd">
<svg version="1.0" xmlns="http://www.w3.org/2000/svg"
 width="2580.000000pt" height="1777.000000pt" viewBox="0 0 2580.000000 1777.000000"
 preserveAspectRatio="xMidYMid meet">

<g transform="translate(0.000000,1777.000000) scale(0.100000,-0.100000)"
fill="#000000" stroke="none">
<path d="M12450 17762 l-195 -3 -422 -1592 c-232 -875 -419 -1594 -416 -1597
2 -3 899 -4 1991 -2 2015 4 2437 -2 2736 -33 589 -62 982 -216 1273 -498 124
-121 207 -235 284 -392 250 -512 259 -1127 24 -1760 -92 -250 -292 -597 -465
-810 -223 -275 -491 -487 -837 -663 -460 -233 -943 -348 -1648 -392 -187 -12
-909 -19 -919 -9 -8 8 355 1464 499 1994 133 493 265 1006 265 1031 0 12 -581
14 -4376 12 l-4377 -3 -793 -2970 c-437 -1633 -812 -3036 -833 -3117 l-39
-148 1773 0 1773 0 11 28 c31 77 173 597 406 1487 75 286 253 957 397 1490
143 534 297 1116 343 1295 46 179 90 341 99 361 l15 36 407 6 c224 4 571 7
772 7 l365 0 -6 -30 c-4 -16 -281 -1064 -616 -2327 -335 -1264 -613 -2310
-616 -2324 l-6 -26 293 -6 c440 -9 4823 10 5043 22 956 51 1570 143 2230 332
1890 543 3316 1687 4105 3294 369 751 555 1465 611 2345 13 206 7 737 -11 910
-45 448 -112 777 -229 1121 -291 858 -794 1521 -1521 2004 -831 552 -1891 847
-3285 916 -208 10 -3550 19 -4105 11z"/>
<path d="M8730 17745 c-389 -53 -767 -203 -1100 -434 -461 -319 -813 -809
-955 -1327 -47 -171 -65 -304 -65 -480 0 -249 40 -427 140 -629 67 -134 131
-225 229 -323 375 -375 987 -488 1615 -297 364 110 711 318 1003 599 561 539
829 1267 694 1885 -120 546 -525 923 -1084 1005 -125 19 -344 19 -477 1z"/>
<path d="M20118 5405 c-582 -83 -1005 -343 -1183 -728 -69 -149 -102 -354 -85
-520 31 -304 190 -518 520 -700 96 -52 278 -126 515 -207 204 -70 299 -111
359 -153 32 -22 65 -88 66 -129 0 -38 -43 -83 -98 -105 -65 -25 -292 -25 -412
0 -249 53 -510 178 -767 368 l-91 68 -74 -77 c-142 -149 -442 -509 -523 -627
-44 -64 -44 -64 51 -147 288 -250 735 -429 1229 -493 153 -20 466 -23 600 -6
573 74 969 330 1147 743 118 274 122 581 11 803 -133 263 -393 439 -916 621
-370 129 -488 203 -470 296 8 39 57 84 109 98 78 22 258 8 415 -33 228 -60
354 -115 546 -238 67 -44 126 -79 131 -79 17 0 151 150 306 341 83 101 181
217 219 258 66 72 107 135 107 165 0 20 -194 141 -360 226 -245 124 -458 197
-700 240 -160 29 -503 37 -652 15z"/>
<path d="M23495 5409 c-187 -19 -427 -87 -602 -169 -371 -175 -601 -451 -668
-803 -22 -117 -20 -314 5 -413 73 -292 296 -491 754 -674 66 -26 195 -76 286
-110 296 -111 400 -182 400 -271 0 -33 -6 -47 -31 -70 -52 -49 -122 -62 -284
-56 -295 12 -558 112 -879 336 -87 61 -165 111 -172 111 -28 0 -489 -538 -603
-703 l-33 -49 38 -40 c127 -130 466 -326 714 -413 248 -86 464 -129 720 -145
409 -24 752 35 1040 180 315 158 525 408 607 718 31 118 42 339 24 448 -54
308 -293 556 -705 730 -61 26 -203 80 -316 119 -113 40 -234 84 -269 99 -110
45 -161 97 -161 166 0 47 17 70 68 93 94 43 351 21 577 -48 141 -43 233 -87
385 -184 80 -50 155 -94 167 -97 17 -5 29 2 50 27 16 18 102 121 193 229 226
267 332 397 364 447 26 40 27 42 11 67 -69 105 -474 311 -766 390 -298 80
-650 113 -914 85z"/>
<path d="M7002 5343 c-47 -16 -74 -43 -315 -323 -228 -264 -421 -469 -432
-458 -4 4 -59 141 -121 305 -63 164 -131 340 -150 391 l-36 92 -599 0 c-329 0
-599 -4 -599 -8 0 -35 103 -286 382 -937 132 -308 245 -575 250 -593 17 -61
-4 -95 -162 -257 -293 -300 -1178 -1247 -1355 -1450 l-87 -100 123 -8 c167
-10 1115 2 1156 14 23 8 70 55 175 177 234 272 459 520 568 627 102 100 102
100 114 75 7 -14 89 -220 182 -457 l169 -433 597 0 c531 0 598 2 598 15 0 41
-143 385 -472 1135 -91 206 -180 414 -198 462 l-33 87 29 38 c83 110 440 499
709 773 89 91 211 219 271 285 60 66 173 187 252 268 78 82 165 178 193 215
l51 67 -54 2 c-29 2 -305 4 -613 5 -408 2 -568 0 -593 -9z"/>
<path d="M8825 5353 l-150 -4 -329 -1217 c-181 -669 -371 -1364 -421 -1543
-80 -278 -117 -432 -138 -561 l-4 -28 556 0 556 0 119 443 c65 243 123 446
128 452 5 6 131 13 301 17 537 14 704 33 910 104 245 85 431 199 579 352 182
190 298 411 355 675 28 126 25 383 -5 501 -89 351 -354 607 -747 721 -103 30
-271 59 -430 76 -109 11 -989 19 -1280 12z m1084 -919 c169 -38 261 -149 261
-315 0 -91 -32 -163 -104 -235 -104 -104 -244 -155 -474 -174 -151 -12 -222
-6 -222 20 0 28 37 202 66 309 48 178 104 376 114 399 l10 24 143 -7 c78 -4
171 -13 206 -21z"/>
<path d="M12175 5353 l-81 -4 -444 -1647 c-244 -906 -446 -1659 -448 -1675
l-4 -27 558 2 558 3 28 115 c98 392 218 798 244 825 12 12 41 15 134 15 l118
0 147 -372 c81 -205 166 -420 189 -478 l42 -105 603 -3 c331 -1 600 1 598 5
-4 6 -406 993 -444 1089 -2 6 34 28 79 49 340 155 415 202 539 333 220 232
333 575 300 909 -45 444 -264 711 -704 858 -129 43 -317 81 -472 95 -117 11
-1377 22 -1540 13z m1179 -943 c83 -7 154 -19 207 -36 184 -58 243 -196 160
-370 -52 -108 -139 -172 -292 -213 -127 -35 -389 -51 -562 -34 l-69 6 7 46
c17 120 134 544 163 588 5 8 43 13 102 16 52 1 109 4 126 5 17 1 88 -3 158 -8z"/>
<path d="M1501 5314 c-452 -1668 -889 -3299 -885 -3304 3 -3 651 -7 1439 -9
l1434 -3 10 38 c173 646 230 868 225 873 -3 3 -399 8 -881 10 l-875 3 6 62
c19 170 57 254 130 287 55 24 124 26 529 15 174 -5 317 -7 317 -5 0 2 49 183
108 402 60 218 108 398 108 398 -1 1 -199 5 -441 8 l-440 6 3 40 c5 51 34 164
62 238 l21 57 869 0 869 0 46 143 c86 266 212 753 199 766 -3 3 -644 7 -1424
9 l-1419 4 -10 -38z"/>
<path d="M15736 5333 c-3 -10 -154 -571 -336 -1248 -182 -676 -360 -1329 -395
-1450 -82 -281 -155 -580 -155 -631 0 -2 646 -4 1435 -4 l1434 0 15 53 c45
155 226 842 226 853 0 12 -141 14 -880 14 -484 0 -880 3 -880 8 0 4 20 84 43
177 l43 170 448 6 c246 4 450 9 452 12 4 4 213 782 214 795 0 1 -198 2 -440 2
-413 0 -440 1 -439 18 0 9 17 85 37 167 l37 150 880 5 879 5 88 330 c48 182
103 387 122 458 l34 127 -1428 0 c-1352 0 -1429 -1 -1434 -17z"/>
<path d="M1501 858 c-5 -13 -87 -201 -181 -418 -94 -217 -174 -401 -177 -408
-4 -10 12 -12 72 -10 l77 3 41 98 41 97 201 0 201 0 40 -97 40 -98 79 -3 c71
-3 77 -1 72 15 -6 21 -340 791 -356 822 -10 18 -21 21 -77 21 -58 0 -65 -2
-73 -22z m148 -334 l68 -159 -74 -3 c-41 -2 -104 -2 -141 0 l-68 3 69 163 c38
90 71 161 74 159 2 -2 34 -76 72 -163z"/>
<path d="M4336 860 c-252 -80 -370 -385 -245 -633 117 -230 440 -295 678 -136
l61 41 0 179 0 179 -180 0 -180 0 0 -65 0 -65 110 0 110 0 0 -81 0 -80 -57
-27 c-44 -20 -78 -27 -138 -30 -75 -4 -84 -2 -144 30 -111 57 -157 148 -149
293 6 124 56 203 162 257 79 41 224 22 305 -39 l35 -27 47 54 c54 61 53 65
-18 107 -109 64 -275 82 -397 43z"/>
<path d="M5572 868 c-5 -7 -90 -197 -187 -423 -97 -226 -179 -413 -182 -417
-2 -5 31 -8 74 -8 l78 0 40 98 40 97 203 0 203 0 41 -97 41 -98 79 0 c43 0 77
3 75 8 -3 4 -85 191 -182 417 -97 226 -182 416 -187 423 -6 7 -34 12 -68 12
-34 0 -62 -5 -68 -12z m138 -338 c34 -80 64 -151 67 -157 4 -10 -27 -13 -137
-13 -131 0 -142 1 -136 18 36 97 132 310 137 304 4 -4 35 -72 69 -152z"/>
<path d="M9466 848 c-8 -18 -89 -206 -181 -418 -92 -212 -170 -391 -172 -398
-4 -10 12 -12 72 -10 l77 3 41 98 40 97 201 0 202 0 40 -98 40 -97 77 -3 c42
-2 77 1 77 5 0 4 -83 197 -183 428 l-182 420 -68 3 -68 3 -13 -33z m152 -326
l70 -162 -144 0 c-80 0 -143 3 -141 8 6 9 114 263 127 298 6 15 12 25 15 23 2
-2 35 -77 73 -167z"/>
<path d="M12852 868 c-5 -7 -87 -193 -182 -413 -95 -220 -177 -408 -182 -418
-8 -15 -2 -17 69 -17 l78 0 40 98 40 97 203 0 203 0 41 -97 41 -98 78 0 78 0
-33 78 c-181 421 -330 759 -338 770 -6 7 -34 12 -68 12 -34 0 -62 -5 -68 -12z
m138 -338 c34 -80 64 -151 67 -157 4 -10 -27 -13 -137 -13 -131 0 -142 1 -136
18 37 98 132 310 137 304 4 -4 35 -72 69 -152z"/>
<path d="M15212 862 c-66 -24 -154 -84 -191 -131 -146 -186 -131 -454 36 -612
161 -152 427 -156 588 -8 l46 42 -47 48 -46 47 -59 -43 c-131 -96 -286 -84
-387 30 -52 59 -72 119 -72 215 0 127 60 224 170 273 94 43 220 20 305 -55
l33 -28 46 51 c25 28 46 55 46 59 0 15 -78 70 -137 97 -79 36 -249 44 -331 15z"/>
<path d="M10 445 l0 -425 70 0 70 0 2 301 3 301 230 -301 230 -301 63 0 62 0
0 425 0 425 -70 0 -70 0 0 -290 c0 -159 -3 -290 -7 -289 -5 0 -107 130 -228
289 l-220 289 -67 1 -68 0 0 -425z"/>
<path d="M2220 868 c0 -2 78 -194 174 -428 l174 -425 67 0 67 0 174 425 c95
234 174 426 174 428 0 1 -36 2 -79 2 l-80 0 -59 -152 c-32 -84 -88 -227 -122
-318 -35 -91 -66 -168 -69 -172 -4 -4 -63 138 -132 315 l-125 322 -82 3 c-45
2 -82 2 -82 0z"/>
<path d="M3450 445 l0 -425 75 0 75 0 0 425 0 425 -75 0 -75 0 0 -425z"/>
<path d="M6310 800 l0 -70 130 0 130 0 0 -355 0 -355 75 0 75 0 0 355 0 355
135 0 135 0 0 70 0 70 -340 0 -340 0 0 -70z"/>
<path d="M7400 445 l0 -425 315 0 315 0 0 65 0 65 -242 2 -243 3 -3 112 -3
113 216 0 215 0 0 65 0 65 -212 2 -213 3 -3 108 -3 107 241 0 240 0 0 70 0 70
-310 0 -310 0 0 -425z"/>
<path d="M10380 445 l0 -425 199 0 c217 0 273 10 363 63 61 36 135 117 166
185 25 52 27 68 27 177 0 111 -2 124 -28 177 -43 87 -107 152 -190 193 -96 47
-148 55 -358 55 l-179 0 0 -425z m456 258 c202 -107 203 -414 0 -517 -53 -28
-68 -31 -182 -34 l-124 -4 0 292 0 292 133 -4 c111 -3 138 -7 173 -25z"/>
<path d="M11454 853 c3 -10 82 -202 174 -428 l168 -410 66 -3 65 -3 104 253
c57 139 136 332 175 428 l72 175 -76 3 c-41 2 -78 -1 -82 -5 -4 -4 -63 -152
-131 -327 -93 -241 -125 -314 -131 -300 -5 10 -62 156 -127 324 l-118 305 -83
3 c-75 3 -81 1 -76 -15z"/>
<path d="M13757 863 c-4 -3 -7 -195 -7 -425 l0 -418 75 0 75 0 2 300 3 300
230 -300 229 -300 63 0 63 0 0 425 0 425 -75 0 -75 0 -2 -290 -3 -289 -220
289 -220 289 -66 0 c-36 1 -69 -2 -72 -6z"/>
<path d="M16100 445 l0 -425 315 0 315 0 0 65 0 65 -242 2 -243 3 -3 112 -3
113 216 0 215 0 0 65 0 65 -212 2 -213 3 -3 108 -3 107 241 0 240 0 0 70 0 70
-310 0 -310 0 0 -425z"/>
<path d="M17880 445 l0 -425 199 0 c167 0 209 3 260 19 125 39 209 112 264
229 30 63 32 74 32 178 0 107 -1 112 -38 186 -44 89 -102 147 -192 189 -86 41
-144 49 -346 49 l-179 0 0 -425z m423 269 c112 -38 180 -142 180 -274 0 -122
-50 -208 -150 -257 -51 -24 -70 -28 -180 -31 l-123 -4 0 291 0 291 113 0 c77
0 128 -5 160 -16z"/>
<path d="M19070 445 l0 -425 315 0 315 0 0 65 0 65 -240 0 -240 0 0 115 0 115
210 0 210 0 0 65 0 65 -210 0 -210 0 0 110 0 110 238 2 237 3 3 68 3 67 -316
0 -315 0 0 -425z"/>
<path d="M20130 445 l0 -425 295 0 295 0 0 65 0 65 -220 0 -220 0 0 360 0 360
-75 0 -75 0 0 -425z"/>
<path d="M21130 445 l0 -425 75 0 75 0 0 425 0 425 -75 0 -75 0 0 -425z"/>
<path d="M21690 863 c0 -5 78 -198 172 -430 l173 -423 65 0 65 0 173 422 c95
233 172 426 172 431 0 4 -35 7 -77 7 l-78 0 -125 -325 c-69 -178 -127 -321
-131 -317 -3 4 -54 133 -114 287 -59 154 -114 297 -122 318 l-15 37 -79 0
c-43 0 -79 -3 -79 -7z"/>
<path d="M22910 445 l0 -425 315 0 315 0 0 65 0 65 -240 0 -240 0 0 115 0 115
210 0 210 0 0 65 0 65 -210 0 -210 0 0 110 0 110 238 2 237 3 0 65 0 65 -312
3 -313 2 0 -425z"/>
<path d="M23970 446 l0 -426 75 0 75 0 0 145 0 145 93 0 93 0 99 -145 100
-144 88 -1 c68 0 86 3 80 12 -4 7 -51 75 -105 150 -54 76 -99 142 -100 147 -2
5 22 22 52 38 136 71 179 237 97 374 -27 45 -43 59 -101 89 l-69 35 -238 3
-239 4 0 -426z m471 261 c93 -62 87 -189 -12 -239 -27 -15 -60 -18 -171 -18
l-138 0 0 140 0 140 144 0 c132 0 146 -2 177 -23z"/>
<path d="M24983 858 c2 -7 77 -124 166 -260 l161 -248 0 -165 0 -165 75 0 75
0 0 170 0 170 158 242 c87 134 162 249 166 256 5 9 -12 12 -77 12 l-84 0 -114
-181 c-63 -99 -118 -181 -124 -182 -5 0 -61 81 -124 181 l-113 182 -85 0 c-64
0 -84 -3 -80 -12z"/>
</g>
</svg>
