<?xml version="1.0" standalone="no"?>
<!DOCTYPE svg PUBLIC "-//W3C//DTD SVG 20010904//EN"
 "http://www.w3.org/TR/2001/REC-SVG-20010904/DTD/svg10.dtd">
<svg version="1.0" xmlns="http://www.w3.org/2000/svg"
 width="2092.000000pt" height="579.000000pt" viewBox="0 0 2092.000000 579.000000"
 preserveAspectRatio="xMidYMid meet">

<g transform="translate(0.000000,579.000000) scale(0.100000,-0.100000)"
fill="#000000" stroke="none">
<path d="M16323 5783 l-2262 -3 -41 -130 c-22 -72 -58 -190 -81 -262 -22 -73
-47 -153 -55 -177 l-14 -44 1151 6 1151 6 -6 -22 c-3 -12 -35 -115 -70 -230
l-64 -207 1116 2 1116 3 77 219 c43 120 80 220 82 222 3 3 522 8 1153 11
l1149 6 89 291 c49 160 91 297 94 304 3 9 -232 11 -1159 10 -640 -2 -2182 -4
-3426 -5z"/>
<path d="M9521 5769 c-492 -35 -945 -180 -1306 -416 -150 -99 -269 -199 -406
-339 -94 -97 -239 -277 -239 -296 0 -5 502 -8 1115 -8 l1115 0 75 79 c200 209
490 331 884 371 66 6 593 10 1470 10 l1367 0 77 258 c43 141 84 278 92 305
l14 47 -2072 -1 c-1140 -1 -2123 -6 -2186 -10z"/>
<path d="M3025 5760 c-6 -9 -205 -588 -205 -596 0 -2 540 -4 1200 -4 660 0
1200 -1 1200 -3 0 -1 -33 -103 -74 -225 l-75 -222 1051 2 1051 3 178 528 178
527 -2249 0 c-1420 0 -2251 -4 -2255 -10z"/>
<path d="M4970 4418 c-6 -18 -74 -215 -149 -438 -76 -223 -151 -430 -166 -460
-52 -102 -180 -217 -320 -287 -250 -127 -670 -194 -1120 -180 -427 14 -691 83
-825 217 -68 68 -94 127 -93 219 0 69 12 113 130 481 72 223 133 415 137 428
l7 22 -1133 0 -1134 0 -133 -417 c-73 -229 -140 -449 -148 -488 -18 -85 -12
-261 12 -350 9 -33 34 -96 55 -140 153 -319 593 -500 1345 -555 187 -13 3029
-13 3225 0 562 40 1041 154 1370 327 312 164 578 422 713 690 27 52 337 937
337 960 0 2 -472 3 -1049 3 l-1049 0 -12 -32z"/>
<path d="M7380 4428 c-33 -77 -261 -879 -271 -954 -29 -223 46 -483 183 -630
179 -191 434 -293 903 -361 110 -15 302 -17 2355 -20 l2235 -3 84 282 c46 156
85 288 88 295 3 8 -347 12 -1419 16 -1246 4 -1437 6 -1534 21 -221 32 -368 90
-459 181 -68 67 -97 129 -103 219 -4 72 3 108 59 299 l20 67 1838 0 1837 0 87
293 c48 162 87 299 87 305 0 9 -733 12 -2990 12 l-2990 0 -10 -22z"/>
<path d="M15655 3473 c-169 -538 -310 -986 -313 -995 -4 -17 54 -18 1110 -18
l1114 0 309 978 c169 537 310 985 312 995 5 16 -53 17 -1109 17 l-1115 0 -308
-977z"/>
<path d="M6722 1831 c-65 -22 -120 -74 -160 -150 -34 -63 -318 -914 -326 -976
-8 -57 12 -105 54 -130 34 -19 51 -20 652 -23 l616 -3 46 138 c25 76 46 141
46 146 0 4 -211 7 -469 7 -460 0 -521 4 -521 32 0 7 48 155 107 328 71 210
115 322 130 338 22 22 24 22 336 22 275 0 316 -2 328 -16 11 -13 7 -33 -22
-122 l-35 -107 -282 -3 -281 -2 -31 -95 c-16 -53 -30 -100 -30 -105 0 -6 163
-10 458 -10 l458 0 93 283 c103 309 115 374 76 417 -44 50 -47 50 -637 50
-510 -1 -557 -2 -606 -19z"/>
<path d="M8173 1838 c3 -7 60 -141 126 -296 67 -156 121 -288 121 -292 0 -6
-637 -615 -724 -692 -6 -4 90 -8 212 -8 l221 0 263 249 c246 234 264 248 274
228 6 -12 48 -124 94 -249 l84 -228 233 0 233 0 -21 52 c-130 329 -239 609
-239 617 0 5 134 132 298 283 163 150 315 290 337 311 l40 36 -215 1 -215 0
-243 -231 c-134 -127 -245 -230 -247 -228 -2 2 -44 105 -93 229 l-90 225 -227
3 c-181 2 -226 0 -222 -10z"/>
<path d="M9802 1643 c-38 -115 -178 -531 -310 -926 l-241 -717 191 2 191 3
257 765 258 765 300 3 c310 2 352 -2 352 -36 0 -32 -189 -585 -209 -612 l-18
-25 -257 -5 -257 -5 -49 -150 c-28 -82 -50 -151 -50 -153 0 -2 170 -2 378 0
l377 3 67 33 c69 34 109 74 145 147 11 22 86 239 167 482 179 538 183 568 83
614 -40 18 -76 19 -674 19 l-631 0 -70 -207z"/>
<path d="M11660 1834 c-68 -18 -116 -55 -156 -121 -18 -30 -103 -268 -213
-594 -101 -299 -186 -550 -189 -557 -3 -10 36 -12 189 -10 l193 3 156 474
c121 368 161 478 179 492 22 18 45 19 321 19 274 0 298 1 305 18 18 46 95 276
95 283 0 5 -182 9 -412 8 -330 0 -424 -3 -468 -15z"/>
<path d="M12833 1836 c-68 -22 -110 -54 -151 -116 -32 -48 -69 -146 -191 -513
-84 -250 -154 -477 -158 -504 -7 -61 13 -105 60 -130 29 -17 81 -18 647 -21
l615 -3 44 133 c24 73 46 139 48 146 4 9 -93 12 -465 12 -282 0 -481 4 -496
10 -15 5 -26 17 -26 27 0 10 47 158 105 328 81 239 111 315 131 333 25 22 28
22 338 22 257 0 316 -3 325 -14 9 -11 4 -39 -24 -125 l-36 -111 -281 -2 -282
-3 -32 -103 -32 -102 461 2 461 3 93 280 c99 299 111 365 77 414 -36 51 -42
51 -636 50 -425 0 -563 -3 -595 -13z"/>
<path d="M14482 1831 c-65 -22 -124 -78 -156 -146 -13 -27 -54 -144 -91 -259
-72 -225 -75 -254 -32 -294 38 -36 111 -42 524 -42 336 0 394 -2 399 -15 10
-26 -54 -200 -80 -217 -6 -4 -234 -8 -508 -8 l-496 0 -50 -150 -51 -151 637 3
637 3 53 24 c99 45 127 93 224 381 73 220 81 271 48 312 -34 44 -79 48 -518
48 -348 0 -411 2 -422 15 -9 11 -6 31 15 97 15 46 37 93 48 106 l20 22 498 0
497 0 46 138 c25 75 46 140 46 145 0 4 -278 7 -617 7 -574 -1 -622 -2 -671
-19z"/>
<path d="M16153 1836 c-80 -26 -126 -65 -165 -141 -28 -54 -158 -460 -158
-493 0 -49 43 -90 109 -102 30 -6 229 -10 446 -10 335 0 394 -2 398 -15 8 -18
-48 -183 -69 -207 -16 -17 -47 -18 -518 -20 l-500 -3 -47 -145 -47 -145 607
-3 c397 -1 624 1 657 8 71 15 134 58 172 118 36 55 182 477 182 525 0 15 -6
40 -14 56 -29 55 -34 56 -503 59 -373 2 -433 5 -444 18 -10 13 -8 30 14 98 44
135 -22 120 559 126 l503 5 47 135 c26 74 47 138 47 143 1 4 -277 7 -616 6
-479 0 -627 -3 -660 -13z"/>
</g>
</svg>
