<?xml version="1.0" encoding="UTF-8"?>
<!DOCTYPE svg PUBLIC "-//W3C//DTD SVG 1.1//EN" "http://www.w3.org/Graphics/SVG/1.1/DTD/svg11.dtd">
<!-- Creator: CorelDRAW X5 -->
<svg xmlns="http://www.w3.org/2000/svg" xml:space="preserve" width="48.6449mm" height="20.32mm" style="shape-rendering:geometricPrecision; text-rendering:geometricPrecision; image-rendering:optimizeQuality; fill-rule:evenodd; clip-rule:evenodd"
viewBox="0 0 4865 2032"
 xmlns:xlink="http://www.w3.org/1999/xlink">
 <defs>
  <style type="text/css">
   <![CDATA[
    .fil0 {fill:#25387B}
    .fil1 {fill:#DF2128}
    .fil3 {fill:#25387B;fill-rule:nonzero}
    .fil2 {fill:#25387C;fill-rule:nonzero}
   ]]>
  </style>
 </defs>
 <g id="__x0023_Layer_x0020_1">
  <metadata id="CorelCorpID_0Corel-Layer"/>
  <polygon class="fil0" points="3203,1459 3509,0 4652,0 4576,365 4004,365 3966,547 4452,547 4375,912 3889,912 3851,1095 4423,1095 4346,1459 "/>
  <path class="fil1" d="M0 1459c1017,-486 2393,-797 3649,-912 339,-31 675,-49 1143,-49 18,0 49,-6 73,-12l-94 450c-5,24 -46,36 -76,36 -2868,0 -4585,486 -4585,486l-109 0z"/>
  <polygon class="fil0" points="1540,1459 1846,0 2393,0 2719,663 2858,0 3405,0 3099,1459 2552,1459 2231,772 2087,1459 "/>
  <path class="fil0" d="M1017 851l178 -851 547 0 -214 1022c-66,316 -312,438 -639,438l-403 0 92 -438 182 0c134,0 231,-49 256,-170z"/>
  <polygon class="fil2" points="2772,1944 2783,1866 2905,1866 2916,1784 2794,1784 2803,1723 2928,1723 2939,1641 2744,1641 2692,2026 2897,2026 2908,1944 "/>
  <path class="fil2" d="M3202 1641l-85 0 -40 70c-6,11 -13,23 -21,38 -6,-20 -10,-31 -10,-33l-25 -75 -73 0 61 189 -110 196 87 0 35 -62c8,-14 15,-26 20,-36 3,10 7,22 11,36l20 62 77 0 -61 -182 114 -203z"/>
  <path class="fil2" d="M3397 1743c0,-21 -3,-40 -9,-55 -7,-16 -16,-28 -28,-36 -12,-7 -27,-11 -46,-11l-105 0 -52 385 70 0 19 -139 22 0c22,0 36,-1 45,-3 14,-3 26,-8 35,-14 9,-6 17,-15 24,-27 7,-11 13,-26 18,-45 5,-18 7,-37 7,-56zm-129 -21l0 0 25 0c20,0 25,2 25,2 3,1 5,4 6,7 2,4 3,10 3,17 0,11 -2,22 -6,32 -4,9 -9,15 -16,19 -4,2 -15,6 -46,6l-3 0 11 -84z"/>
  <path class="fil2" d="M3582 1891c-3,-9 -7,-17 -11,-24 20,-7 36,-20 47,-38 13,-22 19,-49 19,-82 0,-23 -3,-43 -10,-59 -7,-17 -17,-30 -29,-37 -12,-7 -27,-10 -47,-10l-113 0 -52 385 70 0 20 -151 10 0c11,0 15,3 16,4 4,5 11,16 19,43 12,43 20,75 24,95l2 8 74 0 -3 -13c-13,-52 -26,-93 -36,-122zm-85 -168l0 0 44 0c17,0 20,3 20,3 5,5 7,12 7,22 0,10 -2,19 -6,28 -4,8 -9,14 -16,18 -4,2 -15,6 -46,6l-14 0 10 -77z"/>
  <polygon class="fil3" points="3847,1866 3858,1784 3737,1784 3745,1723 3871,1723 3882,1641 3686,1641 3635,2026 3839,2026 3850,1944 3714,1944 3726,1866 "/>
  <path class="fil2" d="M3993 1715c10,0 17,3 22,10 6,8 9,19 10,34l1 11 67 -5 0 -10c-2,-35 -11,-64 -27,-86 -17,-23 -42,-34 -72,-34 -31,0 -54,12 -71,35 -16,22 -23,50 -23,82 0,19 3,35 8,50 5,15 13,27 22,36 9,9 22,19 41,32 22,15 29,22 31,24 4,6 6,12 6,21 0,10 -3,18 -8,25 -5,6 -14,9 -26,9 -20,0 -27,-8 -30,-14 -2,-4 -5,-14 -6,-41l0 -11 -67 5 0 10c0,25 3,48 9,68 7,21 19,37 35,49 17,12 36,18 59,18 33,0 59,-13 77,-39 18,-24 27,-54 27,-88 0,-28 -6,-51 -18,-70 -8,-13 -26,-28 -55,-47 -21,-14 -29,-22 -32,-26 -4,-5 -6,-11 -6,-19 0,-9 2,-16 6,-21 4,-5 10,-7 20,-7z"/>
  <path class="fil2" d="M4230 1789c-21,-14 -29,-22 -32,-26 -4,-5 -6,-11 -6,-19 0,-9 2,-16 6,-21 4,-5 10,-7 20,-7 10,0 17,3 22,10 6,8 9,19 10,34l1 11 67 -5 0 -10c-2,-35 -11,-64 -27,-86 -17,-23 -42,-34 -72,-34 -31,0 -54,12 -71,35 -16,22 -23,50 -23,82 0,19 3,35 8,50 5,15 13,27 22,36 9,9 22,19 41,32 22,15 29,22 31,24 4,6 6,12 6,21 0,10 -3,18 -8,25 -5,6 -13,9 -26,9 -20,0 -27,-8 -30,-14 -2,-4 -5,-14 -6,-41l0 -11 -67 5 0 10c0,25 3,48 9,68 7,21 19,37 35,49 17,12 36,18 59,18 33,0 59,-13 77,-39 18,-24 27,-54 27,-88 0,-28 -6,-51 -18,-70 -8,-13 -26,-28 -54,-47z"/>
 </g>
</svg>
