<?xml version="1.0" encoding="UTF-8"?>
<!DOCTYPE svg PUBLIC "-//W3C//DTD SVG 1.1//EN" "http://www.w3.org/Graphics/SVG/1.1/DTD/svg11.dtd">
<!-- Creator: CorelDRAW X5 -->
<svg xmlns="http://www.w3.org/2000/svg" xml:space="preserve" width="387.779mm" height="91.44mm" style="shape-rendering:geometricPrecision; text-rendering:geometricPrecision; image-rendering:optimizeQuality; fill-rule:evenodd; clip-rule:evenodd"
viewBox="0 0 38778 9144"
 xmlns:xlink="http://www.w3.org/1999/xlink">
 <defs>
  <style type="text/css">
   <![CDATA[
    .fil0 {fill:red}
   ]]>
  </style>
 </defs>
 <g id="Layer_x0020_1">
  <metadata id="CorelCorpID_0Corel-Layer"/>
  <path class="fil0" d="M4335 3151c0,770 1512,424 1512,-231 0,-212 -59,-345 -310,-417 -518,-149 -1202,234 -1202,648zm267 3466c147,0 185,-121 220,-234l311 -1040c75,-231 131,-457 206,-687 31,-97 197,-616 197,-696 0,-6 -15,-42 -22,-69 -213,-52 -873,-23 -1134,-23 -152,0 -194,113 -231,246 -39,143 -71,235 -108,373l-431 1470c-64,198 -262,661 -53,661l1045 0zm3113 -2889c-794,0 -1726,493 -2090,1248 -467,970 246,1748 1290,1666 407,-32 690,-90 1045,-279 669,-356 1404,-1186 978,-2035 -205,-410 -740,-600 -1223,-600zm-1023 1571c0,-178 163,-340 266,-417 615,-458 1277,137 624,625 -194,145 -525,240 -767,56 -75,-57 -123,-140 -123,-265zm-3424 231c0,-216 -280,-162 -489,-162 -1453,0 -1282,105 -881,-1147 57,-179 113,-329 167,-497 67,-210 382,-945 181,-945l-1112 0c-138,0 -229,117 -271,227l-655 1861c-161,497 -208,444 -208,985 0,484 473,763 934,763l1756 0c122,0 220,-62 267,-138 68,-110 311,-875 311,-948zm9027 1086c107,0 158,-59 187,-152l204 -758c163,-679 516,-1250 -98,-1728 -152,-118 -495,-227 -760,-227 -567,0 -502,29 -1032,129 -756,142 -899,-245 -1050,226 -38,120 -71,209 -105,330l-523 1721c-54,183 -201,459 42,459l845 0c259,0 316,-114 381,-320l343 -1076c47,-174 125,-383 321,-383 151,0 467,-48 467,139 0,220 -41,258 -89,439 -32,122 -67,230 -102,356 -37,132 -65,237 -98,360 -32,119 -183,485 0,485l1067 0z"/>
  <path class="fil0" d="M30003 5023c18,0 23,26 163,-5 346,-76 640,-630 640,-718 0,-208 -167,-285 -381,-285l-1439 20c-126,0 -149,14 -202,97 -46,72 -430,1363 -473,1526 -199,753 -439,1008 -21,1008l719 0c201,0 304,-143 351,-315 51,-186 84,-340 138,-515 52,-169 109,-348 164,-510 51,-149 156,-304 341,-304zm2432 -153c589,0 341,128 846,-635 32,-48 63,-73 63,-154 0,-241 -1319,-247 -2066,313 -194,146 -342,265 -489,457 -121,157 -278,381 -278,655 0,403 88,681 365,914 355,299 1122,370 1583,228 373,-115 331,-111 205,-656 -54,-230 -18,-228 -293,-224 -172,3 -243,33 -414,-74 -462,-287 -38,-824 478,-824zm6344 -1841l-1332 0c-59,127 -100,324 -145,463l-550 1819c-49,152 -86,292 -138,449l-206 685c-21,63 -54,143 -61,222l1374 0 1057 -3638zm-4419 2893c0,-105 152,-116 248,-137l927 -222c210,-55 414,-108 605,-162 112,-32 190,-58 250,-136 254,-328 -20,-797 -249,-1036 -299,-312 -578,-323 -978,-323 -399,0 -1085,283 -1399,522 -367,280 -728,742 -692,1227 102,1386 2050,1131 2780,674 190,-119 283,-193 283,-386 0,-243 -829,219 -1311,219 -154,0 -465,-113 -465,-241zm0 -548c-155,0 -51,-233 89,-368 250,-240 750,-190 820,83 -54,84 -90,71 -198,102 -143,42 -593,183 -712,183zm-6936 1293c272,0 290,-235 357,-441l370 -1238c34,-107 55,-194 90,-301 143,-442 90,-497 -228,-535 -397,-48 -438,-132 -758,-178 -431,-62 -803,-63 -1219,138 -457,221 -759,524 -987,993 -620,1275 420,2146 1292,1186 93,-102 111,-143 111,-258 -290,0 -511,85 -575,-216 -47,-219 55,-522 130,-683 81,-174 233,-357 402,-438 97,-47 217,-74 334,-39 87,26 174,120 174,237 0,262 -230,968 -320,1246 -21,66 -213,529 3,529l825 0zm-4229 0c571,0 1153,-412 1396,-898 191,-382 253,-857 36,-1243 -432,-766 -1287,-649 -1990,-541 -234,36 -513,0 -727,36 -114,19 -176,69 -214,173 -90,243 -188,634 -274,899 -219,677 -420,1422 -640,2098 -49,152 -186,463 45,463 1103,0 1073,120 1226,-460 53,-199 123,-388 169,-592 87,-7 47,-22 127,-22 96,0 199,46 281,60 224,38 338,28 565,28zm-719 -877c0,-62 218,-665 251,-770 84,-267 250,-435 553,-435 521,0 539,762 175,1124 -344,341 -979,262 -979,81z"/>
  <path class="fil0" d="M21322 2851l0 -388c-125,-33 -22,-49 -205,-53 -91,-2 -160,8 -251,-8 -126,-23 -251,-96 -346,-146 0,-226 81,-227 -137,-355 -195,-115 -490,-250 -658,-403 -84,-76 -152,-210 -214,-303 -190,0 -275,29 -311,181 -85,-23 -126,-87 -229,-133l-536 -188c-127,-50 -126,-67 -296,-67 -164,244 -57,135 -129,285 -290,0 -42,-62 -558,11 -550,77 -237,15 -554,15 0,148 -68,299 0,440 -100,8 -757,82 -802,104 -113,236 105,502 181,647 -51,24 -183,50 -259,52 0,330 146,797 255,1091 134,360 592,1191 832,1367 108,-72 197,-152 315,-228 831,-535 1983,-186 2411,711 515,1080 -218,2390 -1458,2390l0 -155c285,0 550,-114 730,-227 1498,-944 354,-3363 -1426,-2642 -109,44 -197,104 -292,174 -89,65 -198,120 -229,237 -559,-374 -1119,-1381 -1335,-2133 -148,-516 -137,-644 -200,-1120 -33,-253 -44,-906 -4,-1184 39,-265 72,-563 132,-821 -253,8 -389,-19 -722,154 -173,107 -284,282 -353,475 -314,863 -11,1919 342,2679 119,257 261,477 411,702 296,446 650,793 1050,1150 347,309 542,333 420,563 -85,-23 -63,-29 -130,-77l-807 -590c-960,-858 -1482,-1682 -1779,-2956 -837,0 -1130,1513 695,2876 499,373 1007,635 1586,873 114,47 238,105 359,133l0 181c-218,0 -793,-184 -1002,-266 -321,-126 -591,-228 -872,-395 -534,-317 -1000,-611 -1360,-1150 -316,212 -327,730 -119,1076 173,288 515,480 818,631 332,166 718,272 1146,329 459,61 873,59 1390,59 8,101 23,67 26,181 -110,53 -658,114 -829,128 -1307,107 -2127,-489 -2327,-542 -186,797 460,1194 1242,1190 1251,-6 1755,-468 2044,-492 26,98 51,65 78,181 -438,232 -430,312 -1077,528 -699,233 -1021,93 -1407,93 0,367 192,536 494,592 623,116 1148,-117 1594,-497 116,-99 491,-406 525,-535 85,23 112,65 155,129 -44,82 -99,150 -163,225 -185,217 -318,356 -554,533 -255,191 -691,405 -1017,432 15,186 317,372 589,331 743,-113 1071,-835 1352,-1366 88,7 95,20 155,52 -61,263 -242,614 -384,806 -224,303 -338,374 -651,539 65,242 859,435 1134,-678 37,-150 105,-429 108,-590 114,3 81,17 181,26 0,186 -35,635 -79,775 -51,161 -154,283 -221,406 -40,73 -79,73 18,107 254,88 524,-122 584,-262 109,-258 31,-450 9,-715 113,-3 346,-51 447,-71 152,-29 268,-59 385,-106 360,-145 653,-334 871,-656 153,-227 235,-426 318,-691 77,-246 60,-132 256,-236 0,-413 -132,-230 -214,-488 -94,-297 439,-307 119,-556 -169,-132 -523,-303 -397,-845 223,0 319,114 518,-25 108,-75 154,-308 154,-492 -173,40 -290,178 -486,20 -263,-212 -80,-723 260,-792 225,-46 341,103 355,280 133,-35 248,-229 288,-359l48 -159zm-2613 -595c-73,-39 -86,-27 -130,-103 -22,-38 -51,-117 -41,-172 20,-103 255,-425 533,-10 -84,-19 -160,-52 -259,-52 -186,0 -103,336 -103,336zm1682 52c-26,113 -77,146 -103,259l-47 -56c-71,-81 -83,-71 -107,-172l258 -31z"/>
 </g>
</svg>
