<?xml version="1.0" encoding="UTF-8"?>
<!DOCTYPE svg PUBLIC "-//W3C//DTD SVG 1.1//EN" "http://www.w3.org/Graphics/SVG/1.1/DTD/svg11.dtd">
<!-- Creator: CorelDRAW X5 -->
<svg xmlns="http://www.w3.org/2000/svg" xml:space="preserve" width="48.1324mm" height="20.32mm" style="shape-rendering:geometricPrecision; text-rendering:geometricPrecision; image-rendering:optimizeQuality; fill-rule:evenodd; clip-rule:evenodd"
viewBox="0 0 4813 2032"
 xmlns:xlink="http://www.w3.org/1999/xlink">
 <defs>
  <style type="text/css">
   <![CDATA[
    .fil1 {fill:black}
    .fil0 {fill:#E41E26}
    .fil2 {fill:white}
    .fil3 {fill:black;fill-rule:nonzero}
   ]]>
  </style>
 </defs>
 <g id="Layer_x0020_1">
  <metadata id="CorelCorpID_0Corel-Layer"/>
  <path class="fil0" d="M1666 531c-98,0 -185,63 -247,136l0 -122 -260 0 0 842 273 0 0 -426c0,-146 67,-208 155,-208 79,0 128,54 128,180l0 454 273 0 0 -465c0,-273 -139,-392 -321,-392zm1951 746l0 156c0,0 3,162 -170,122l0 0 -16 222c33,7 452,86 452,-303l6 -197 0 -731 -273 0 0 731zm-1323 -829c100,0 166,-72 166,-169 0,-93 -66,-159 -166,-159 -100,0 -166,72 -166,164 0,93 66,164 166,164zm-136 940l273 0 0 -842 -273 0 0 842zm956 -857c-98,0 -185,63 -247,136l0 -122 -260 0 0 842 273 0 0 -426c0,-146 67,-208 155,-208 79,0 128,54 128,180l0 454 273 0 0 -465c0,-273 -139,-392 -321,-392zm640 -83c100,0 166,-72 166,-169 0,-93 -66,-159 -166,-159 -100,0 -166,72 -166,164 0,93 66,164 166,164zm667 73c-122,0 -289,63 -371,140l140 150c53,-47 124,-80 199,-80 108,0 155,39 159,128l-225 23c-240,24 -313,129 -313,291 0,115 117,236 304,236 88,0 207,-34 245,-119l0 98 254 0 1 -472c1,-279 -140,-395 -393,-395zm-34 703c-65,0 -118,-36 -118,-88 0,-54 56,-99 143,-105l148 -10 0 75c-32,107 -112,128 -172,128z"/>
  <path class="fil1" d="M1522 1870l-129 -182 124 -174 -103 0 -72 104 -70 -104 -108 0 124 177 -128 180 105 0 75 -109 73 109 109 0zm244 -362c-45,0 -80,15 -104,46l0 -41 -92 0 0 485 96 0 0 -166c25,29 59,43 100,43 93,0 166,-72 166,-184 0,-112 -72,-184 -166,-184zm-17 282c-48,0 -85,-37 -85,-99 0,-62 36,-99 85,-99 48,0 85,37 85,99 0,62 -36,99 -85,99zm339 -230l0 -47 -92 0 0 357 96 0 0 -168c0,-68 35,-99 88,-99 7,0 14,1 22,1l0 -95c-51,0 -91,18 -114,52zm494 133c0,-115 -75,-185 -173,-185 -101,0 -177,77 -177,184 0,106 75,184 190,184 60,0 106,-20 137,-58l-51 -60c-23,23 -48,34 -83,34 -51,0 -86,-27 -95,-72l252 0c1,-9 2,-20 2,-28zm-172 -107c43,0 75,29 82,74l-164 0c7,-46 38,-74 82,-74zm349 289c100,0 157,-47 157,-113 0,-141 -201,-82 -201,-143 0,-19 19,-33 62,-33 30,0 63,7 96,27l32 -74c-32,-20 -82,-31 -128,-31 -97,0 -154,48 -154,115 0,143 201,83 201,141 0,20 -17,32 -61,32 -41,0 -86,-14 -116,-34l-32 74c31,22 88,38 144,38zm328 0c100,0 157,-47 157,-113 0,-141 -201,-82 -201,-143 0,-19 19,-33 62,-33 30,0 63,7 96,27l32 -74c-32,-20 -82,-31 -128,-31 -97,0 -154,48 -154,115 0,143 201,83 201,141 0,20 -17,32 -61,32 -41,0 -86,-14 -116,-34l-32 74c31,22 88,38 144,38z"/>
  <path class="fil0" d="M480 0c265,0 480,215 480,480 0,6 0,12 0,19 0,1 0,2 0,3 -2,36 -7,72 -17,106 -26,105 -91,274 -253,491 -92,123 -160,300 -211,484 -51,-184 -119,-362 -211,-484 -172,-230 -234,-406 -257,-510 -3,-13 -6,-27 -7,-40 -7,-43 -5,-66 -5,-66l0 0c0,-1 0,-2 0,-3 0,-265 215,-480 480,-480zm0 88c217,0 392,176 392,392 0,217 -176,392 -392,392 -217,0 -392,-176 -392,-392 0,-217 176,-392 392,-392z"/>
  <path class="fil1" d="M480 133c192,0 347,155 347,347 0,192 -155,347 -347,347 -192,0 -347,-155 -347,-347 0,-192 155,-347 347,-347z"/>
  <path class="fil2" d="M306 332l349 0c66,0 120,54 120,120l0 0c0,66 -54,120 -120,120l-349 0c-66,0 -120,-54 -120,-120l0 0c0,-66 54,-120 120,-120zm26 51c38,0 69,31 69,69 0,38 -31,69 -69,69 -38,0 -69,-31 -69,-69 0,-38 31,-69 69,-69zm297 0c38,0 69,31 69,69 0,38 -31,69 -69,69 -38,0 -69,-31 -69,-69 0,-38 31,-69 69,-69zm2 8c17,0 30,13 30,30 0,17 -13,30 -30,30 -17,0 -30,-13 -30,-30 0,-17 13,-30 30,-30zm-297 0c17,0 30,13 30,30 0,17 -13,30 -30,30 -17,0 -30,-13 -30,-30 0,-17 13,-30 30,-30z"/>
  <path class="fil3" d="M604 1370l214 132 0 0 0 0 0 22 0 292 0 18 -15 9 -322 190 -322 -190 -15 -9 0 -18 0 -314 25 -15 189 -116c8,18 16,36 23,54l-152 94 157 97 95 56 96 -56 157 -96 -152 -94c8,-18 15,-36 23,-54zm-153 353l-1 -1 -248 -146 0 222 249 147 0 -222z"/>
 </g>
</svg>
