<?xml version="1.0" encoding="UTF-8"?>
<!DOCTYPE svg PUBLIC "-//W3C//DTD SVG 1.1//EN" "http://www.w3.org/Graphics/SVG/1.1/DTD/svg11.dtd">
<!-- Creator: CorelDRAW X5 -->
<svg xmlns="http://www.w3.org/2000/svg" xml:space="preserve" width="47.1812mm" height="31.4476mm" style="shape-rendering:geometricPrecision; text-rendering:geometricPrecision; image-rendering:optimizeQuality; fill-rule:evenodd; clip-rule:evenodd"
viewBox="0 0 4718 3145"
 xmlns:xlink="http://www.w3.org/1999/xlink"
 xmlns:svg="http://www.w3.org/2000/svg">
 <defs>
  <style type="text/css">
   <![CDATA[
    .fil0 {fill:#4C4C4C;fill-rule:nonzero}
    .fil1 {fill:#E67015;fill-rule:nonzero}
   ]]>
  </style>
 </defs>
 <g id="Layer_x0020_1">
  <metadata id="CorelCorpID_0Corel-Layer"/>
 </g>
 <g id="svg2410">
  <metadata id="CorelCorpID_1Corel-Layer"/>
  <path class="fil0" d="M4290 3129l138 -387 155 0 135 387 -150 0 -12 -49 -105 0 -12 49 -149 0zm184 -141l0 0 58 0 -12 -44c-6,-22 -10,-39 -12,-51 -2,-12 -3,-23 -4,-34l-2 0c-1,11 -2,22 -4,34 -2,12 -6,29 -12,51l-12 44zm-351 141l0 0 0 -387 142 0 0 387 -142 0zm-365 -43l0 0 44 -108c20,14 38,24 53,30 16,6 30,10 44,10 10,0 17,-2 22,-5 6,-4 8,-8 8,-15 0,-11 -14,-19 -41,-25 -9,-2 -16,-3 -21,-5 -29,-7 -51,-20 -66,-38 -15,-18 -23,-40 -23,-67 0,-42 15,-75 45,-101 30,-26 69,-39 117,-39 22,0 44,3 66,9 21,6 43,15 65,26l-42 101c-13,-10 -27,-17 -40,-23 -13,-5 -27,-8 -39,-8 -10,0 -17,2 -22,5 -5,3 -8,8 -8,14 0,11 19,21 58,29 6,1 11,3 14,3 27,6 48,18 63,37 15,18 23,41 23,67 0,43 -15,78 -46,105 -31,27 -71,41 -121,41 -25,0 -51,-4 -76,-11 -25,-7 -51,-18 -76,-32zm-291 43l0 0 0 -387 259 0 0 105 -122 0 0 37 111 0 0 99 -111 0 0 41 125 0 0 105 -262 0zm-465 0l0 0 0 -387 136 0 120 202c-2,-9 -3,-19 -3,-30 -1,-11 -1,-25 -1,-43l0 -130 134 0 0 387 -137 0 -119 -201c1,9 2,18 3,28 1,10 1,21 1,33l0 140 -134 0zm-62 -193l0 0c0,28 -5,55 -15,79 -10,24 -25,46 -44,65 -19,19 -42,33 -67,43 -25,10 -52,15 -81,15 -29,0 -56,-5 -81,-15 -25,-10 -48,-25 -67,-44 -19,-19 -34,-40 -44,-64 -10,-24 -15,-51 -15,-80 0,-29 5,-55 15,-80 10,-24 24,-46 44,-65 19,-19 42,-33 67,-43 25,-10 52,-15 81,-15 29,0 56,5 81,15 25,10 48,24 67,43 19,19 33,41 43,65 10,25 15,51 15,80zm-207 73l0 0c20,0 35,-7 47,-20 12,-13 18,-31 18,-53 0,-22 -6,-40 -18,-53 -12,-13 -28,-20 -47,-20 -20,0 -35,7 -47,20 -12,14 -18,31 -18,53 0,22 6,40 18,53 12,13 28,20 47,20zm-623 120l0 0 0 -387 113 0c36,0 66,2 92,6 25,4 46,10 62,18 34,18 59,41 77,70 18,29 27,62 27,99 0,37 -9,70 -27,99 -18,29 -43,52 -77,70 -16,8 -37,15 -62,19 -25,4 -59,6 -101,6l-102 0zm138 -118l0 0c31,0 54,-6 69,-18 14,-12 22,-31 22,-57 0,-25 -7,-44 -21,-56 -14,-12 -35,-18 -64,-18l-6 0 0 150zm-604 118l0 0 0 -387 136 0 120 202c-2,-9 -3,-19 -3,-30 -1,-11 -1,-25 -1,-43l0 -130 134 0 0 387 -137 0 -119 -201c1,9 2,18 3,28 1,10 1,21 1,33l0 140 -134 0zm-217 0l0 0 0 -387 141 0 0 387 -141 0zm-560 -27l0 0 44 -108c20,14 38,24 53,30 16,6 30,10 44,10 10,0 17,-2 22,-5 6,-4 8,-8 8,-15 0,-11 -14,-19 -41,-25 -9,-2 -16,-3 -21,-5 -29,-7 -51,-20 -66,-38 -15,-18 -23,-40 -23,-67 0,-42 15,-75 45,-101 30,-26 69,-39 117,-39 22,0 44,3 66,9 21,6 43,15 65,26l-42 101c-13,-10 -27,-17 -40,-23 -13,-5 -27,-8 -39,-8 -10,0 -17,2 -22,5 -5,3 -8,8 -8,14 0,11 19,21 58,29 6,1 11,3 14,3 27,6 48,18 63,37 15,18 23,41 23,67 0,43 -15,78 -46,105 -31,27 -71,41 -121,41 -25,0 -51,-4 -76,-11 -25,-7 -51,-18 -76,-32zm-29 -160l0 0c0,28 -5,55 -15,79 -10,24 -25,46 -44,66 -19,19 -42,33 -67,43 -25,10 -52,15 -81,15 -29,0 -56,-5 -81,-15 -25,-10 -48,-25 -67,-44 -19,-19 -34,-40 -44,-64 -10,-24 -15,-51 -15,-80 0,-29 5,-55 15,-80 10,-24 24,-46 44,-65 19,-19 42,-33 67,-43 25,-10 52,-15 81,-15 29,0 56,5 81,15 25,10 48,24 67,43 19,19 33,41 43,65 10,25 15,51 15,80zm-207 73l0 0c20,0 35,-7 47,-20 12,-13 18,-31 18,-53 0,-22 -6,-40 -18,-53 -12,-13 -28,-20 -47,-20 -20,0 -35,7 -47,20 -12,14 -18,31 -18,53 0,22 6,40 18,53 12,13 28,20 47,20zm-439 -159l0 0 0 64 22 0c13,0 23,-3 30,-8 7,-6 11,-13 11,-24 0,-10 -4,-18 -11,-24 -7,-6 -17,-9 -30,-9l-22 0zm-140 279l0 0 0 -387 166 0c58,0 101,11 128,34 27,23 41,58 41,107 0,46 -12,79 -36,100 -24,21 -63,32 -116,32l-44 0 0 114 -139 0z"/>
  <path class="fil1" d="M1699 1857l417 0 -113 77 -255 0 -41 -62c-3,-5 -6,-10 -8,-14zm2036 69l0 0 -462 2c-87,233 -317,433 -480,537 -9,1 -15,2 -21,3 -9,0 -18,0 -27,0 -13,0 -25,0 -38,-1 -4,-1 -9,-1 -15,-2 -99,-60 -234,-152 -306,-255l82 -35c66,88 146,152 227,232l2 -318 75 -29 2 354c159,-133 308,-312 405,-486l-36 -2 172 -76 468 -1c-17,32 -26,47 -46,77zm-965 -483l0 0 -76 48 0 -123 76 0 0 76zm-537 334l0 0c-48,-128 -80,-256 -87,-404l-73 0c7,161 34,302 86,452l74 -48zm535 -1225l0 0 1 -431c135,105 277,255 377,431l91 0c-116,-267 -351,-432 -453,-475 -6,-1 -12,-2 -20,-2 -7,0 -14,0 -21,0 -16,0 -31,0 -47,0 -3,0 -7,1 -10,1 -133,67 -356,243 -447,481l99 0c84,-183 221,-313 356,-425l-1 421 74 0z"/>
  <path class="fil1" d="M1481 1397l71 -6c30,274 127,468 284,667l-56 47c-183,-213 -293,-463 -299,-707zm666 912l0 0 -80 40c195,122 430,191 677,191 555,-10 1031,-373 1200,-876l-92 29c-162,448 -605,775 -1108,775 -210,0 -427,-65 -598,-160zm-1564 -1439l0 0 40 -32 2073 -73c62,3 136,51 158,94l-2271 11zm-154 119l0 0 2474 -75c46,0 119,46 162,92l-2681 17 46 -34zm-198 157l0 0 2861 -79c77,-3 162,55 176,87l-3079 28 43 -35zm3467 -590l0 0c-216,-284 -575,-482 -953,-482 -382,-7 -762,192 -969,486l-89 2c229,-335 622,-561 1058,-561 430,0 815,221 1044,553l-91 2zm642 713l0 0c26,0 43,21 43,49 0,27 -17,43 -43,43 -26,0 -49,-15 -49,-43 0,-27 23,-49 49,-49zm-3510 -598l0 0 2959 -79c346,79 338,347 169,567l323 -3c161,-7 248,143 403,292 -442,49 -844,158 -1301,305 -640,210 -1234,469 -1880,744 335,-369 632,-561 931,-765 228,-140 509,-297 720,-410l149 0c-176,88 -430,240 -661,372 -245,140 -566,356 -786,574 564,-233 1042,-435 1599,-611 311,-96 674,-210 1056,-272 -36,-93 -115,-152 -253,-152l-465 0c99,-108 182,-267 181,-388 -1,-76 -111,-152 -194,-151l-2984 12 35 -33zm-830 667l0 0 37 -30 3156 -88c67,0 116,-13 155,0 55,21 95,49 128,88l-3476 31z"/>
 </g>
</svg>
