<?xml version="1.0" standalone="no"?>
<!DOCTYPE svg PUBLIC "-//W3C//DTD SVG 20010904//EN"
 "http://www.w3.org/TR/2001/REC-SVG-20010904/DTD/svg10.dtd">
<svg version="1.0" xmlns="http://www.w3.org/2000/svg"
 width="1282.000000pt" height="968.000000pt" viewBox="0 0 1282.000000 968.000000"
 preserveAspectRatio="xMidYMid meet">

<g transform="translate(0.000000,968.000000) scale(0.100000,-0.100000)"
fill="#000000" stroke="none">
<path d="M7820 9338 l0 -324 -122 -28 c-536 -123 -1160 -334 -1728 -584 -948
-419 -1905 -1018 -2759 -1730 -1259 -1049 -2329 -2380 -2957 -3677 -118 -245
-241 -525 -230 -525 2 0 23 28 46 63 149 214 432 581 634 822 318 379 827 906
1169 1210 l167 148 0 158 c0 415 132 754 405 1037 234 244 529 406 896 492
365 85 829 75 1132 -26 43 -14 88 -24 100 -21 12 3 126 50 252 105 1095 475
2285 766 3545 867 336 26 572 35 991 35 627 0 1088 -28 1718 -105 112 -14 205
-24 207 -22 3 3 -3441 2419 -3457 2425 -5 2 -9 -133 -9 -320z"/>
<path d="M7338 1500 c-155 -26 -288 -116 -373 -250 -48 -76 -84 -186 -121
-366 -31 -155 -35 -193 -32 -284 6 -165 56 -249 182 -306 52 -23 78 -28 171
-32 259 -10 448 105 530 323 38 100 41 96 -77 93 l-101 -3 -14 -41 c-31 -93
-121 -159 -232 -170 -159 -17 -251 62 -251 213 0 73 66 369 97 435 57 122 138
184 256 195 150 13 250 -70 230 -193 l-6 -34 105 0 105 0 7 38 c25 152 -32
285 -147 344 -81 41 -217 57 -329 38z"/>
<path d="M10522 1443 c-6 -27 -14 -65 -17 -85 l-7 -38 96 0 c107 0 94 -10 116
90 18 83 21 80 -84 80 l-94 0 -10 -47z"/>
<path d="M556 893 c-65 -324 -121 -594 -124 -600 -3 -10 80 -13 395 -13 l400
0 11 65 c7 36 15 78 18 95 l7 30 -293 0 -292 0 5 23 c3 12 18 84 33 160 l27
137 252 0 252 0 11 65 c7 36 15 78 18 95 l7 30 -245 0 c-135 0 -247 2 -250 5
-3 3 9 73 26 155 l31 150 292 0 292 0 11 58 c7 31 15 74 20 95 l8 37 -397 0
-396 0 -119 -587z"/>
<path d="M3680 1196 c-63 -14 -109 -36 -164 -79 -32 -25 -38 -27 -33 -11 3 10
8 34 12 52 l7 32 -96 0 c-82 0 -95 -2 -100 -17 -9 -33 -176 -864 -176 -879 0
-11 19 -14 94 -14 82 0 95 2 100 18 2 9 28 132 56 272 29 140 60 273 69 295
53 119 164 172 302 142 l36 -7 20 99 20 99 -36 6 c-44 7 -43 7 -111 -8z"/>
<path d="M10209 1200 c-64 -11 -128 -41 -173 -80 l-37 -33 7 52 7 52 -94 -3
-94 -3 -86 -420 c-47 -231 -88 -435 -92 -452 l-6 -33 98 0 98 0 52 258 c65
322 73 344 137 408 62 64 128 84 216 66 29 -6 56 -7 59 -4 7 8 42 183 37 187
-10 9 -89 12 -129 5z"/>
<path d="M12159 1200 c-64 -11 -128 -41 -173 -81 l-38 -33 7 52 7 52 -94 0
-94 0 -88 -432 c-48 -238 -90 -443 -93 -456 -5 -22 -4 -22 94 -22 l98 0 54
263 c29 144 62 285 73 314 44 120 170 186 291 152 22 -6 41 -8 44 -5 6 6 45
188 41 191 -10 9 -91 12 -129 5z"/>
<path d="M2698 1177 c-31 -13 -75 -39 -98 -57 l-42 -34 7 35 c3 19 9 42 12 52
4 16 -3 18 -93 15 l-98 -3 -118 -575 c-64 -316 -117 -583 -118 -592 0 -16 11
-18 94 -18 66 0 95 4 99 13 2 6 19 86 37 177 18 91 35 167 37 169 1 2 12 -8
24 -23 40 -50 95 -71 189 -71 76 0 93 4 152 33 130 64 217 196 263 397 62 269
35 413 -87 476 -67 35 -186 37 -260 6z m120 -187 c40 -25 54 -59 54 -130 0
-79 -37 -233 -69 -292 -87 -159 -304 -154 -328 7 -8 48 23 223 50 288 20 48
70 104 114 127 50 26 136 26 179 0z"/>
<path d="M4159 1186 c-120 -34 -236 -134 -290 -249 -62 -134 -99 -382 -70
-483 25 -92 104 -161 209 -183 207 -43 424 50 501 214 35 74 34 75 -71 75
l-93 -1 -20 -32 c-57 -92 -264 -106 -319 -23 -20 31 -30 89 -22 131 l7 35 288
0 289 0 16 88 c41 222 -3 354 -136 412 -65 29 -216 37 -289 16z m177 -185 c58
-27 86 -91 68 -158 -6 -23 -8 -23 -196 -23 l-189 0 6 23 c11 35 51 100 78 125
55 51 160 66 233 33z"/>
<path d="M5076 1189 c-68 -10 -152 -46 -207 -89 -53 -43 -100 -140 -106 -222
-12 -143 60 -200 287 -229 162 -20 201 -50 164 -126 -28 -56 -87 -83 -181 -83
-110 0 -173 36 -173 97 0 22 -3 23 -89 23 -84 0 -89 -1 -95 -22 -27 -104 42
-219 153 -252 73 -21 239 -21 312 0 166 49 263 156 276 303 7 76 -9 123 -58
165 -47 40 -82 50 -249 76 -102 15 -128 23 -142 40 -22 27 -23 52 -3 90 20 38
63 60 130 67 115 12 195 -22 195 -82 0 -25 0 -25 90 -25 88 0 90 1 96 25 10
40 -4 106 -31 147 -31 47 -102 84 -186 98 -72 11 -100 11 -183 -1z"/>
<path d="M5926 1189 c-68 -10 -152 -46 -207 -89 -52 -42 -102 -144 -107 -221
-5 -72 1 -99 33 -137 39 -46 103 -70 244 -91 71 -10 138 -24 150 -31 61 -32
39 -118 -39 -157 -52 -27 -170 -32 -224 -9 -39 16 -66 51 -66 83 0 22 -3 23
-89 23 -84 0 -89 -1 -95 -22 -27 -104 42 -219 153 -252 73 -21 239 -21 312 0
165 49 263 157 276 304 7 72 -9 121 -52 158 -46 41 -101 59 -248 81 -137 20
-167 35 -167 78 0 66 54 111 145 120 112 12 195 -23 195 -82 0 -25 0 -25 90
-25 88 0 90 1 96 25 10 39 -4 106 -30 145 -30 46 -106 86 -186 99 -73 12 -100
12 -184 0z"/>
<path d="M8218 1181 c-122 -39 -212 -119 -269 -237 -46 -98 -83 -269 -83 -389
0 -85 3 -107 23 -148 59 -121 213 -173 394 -133 186 42 297 172 353 414 54
235 42 348 -46 434 -34 33 -65 52 -101 62 -71 21 -199 20 -271 -3z m190 -191
c37 -23 62 -72 62 -124 0 -52 -37 -221 -61 -276 -48 -113 -164 -166 -268 -124
-79 31 -94 96 -61 257 33 167 66 228 143 266 56 28 140 28 185 1z"/>
<path d="M11108 1189 c-65 -15 -155 -67 -207 -119 -99 -99 -175 -320 -175
-510 0 -183 96 -285 283 -297 194 -13 369 75 437 220 13 29 24 58 24 65 0 9
-25 12 -92 12 l-93 -1 -20 -32 c-30 -48 -96 -77 -175 -77 -79 0 -128 22 -152
71 -18 35 -24 114 -10 136 6 10 80 13 292 15 l285 3 18 85 c48 227 -15 377
-176 425 -55 16 -179 18 -239 4z m180 -195 c41 -31 65 -86 57 -134 l-7 -40
-190 0 -189 0 7 23 c24 77 77 139 140 163 54 20 147 13 182 -12z"/>
<path d="M1500 1187 c0 -1 41 -99 90 -217 50 -118 90 -218 90 -223 0 -4 -83
-109 -185 -232 -102 -124 -185 -227 -185 -230 0 -3 47 -5 104 -5 l104 0 118
152 117 151 39 -94 c21 -52 49 -119 62 -149 l23 -55 107 -3 c58 -1 106 -1 106
1 0 2 -43 106 -95 232 -53 126 -94 233 -91 239 2 6 83 105 180 220 97 115 176
210 176 212 0 2 -47 4 -104 4 l-105 0 -108 -140 c-59 -76 -110 -136 -114 -132
-3 4 -30 67 -60 139 l-54 133 -107 0 c-60 0 -108 -1 -108 -3z"/>
<path d="M8900 1186 c0 -2 -27 -138 -61 -302 -51 -251 -60 -311 -57 -374 9
-157 94 -236 267 -247 225 -15 392 90 461 291 20 58 130 580 130 616 0 18 -7
20 -94 20 l-94 0 -12 -52 c-6 -29 -31 -152 -56 -273 -24 -121 -51 -242 -60
-268 -32 -98 -121 -156 -223 -144 -58 6 -93 34 -110 88 -14 41 -11 57 46 346
l60 303 -99 0 c-54 0 -98 -2 -98 -4z"/>
<path d="M10465 1168 c-15 -67 -175 -865 -175 -875 0 -10 26 -13 95 -13 90 0
95 1 100 23 16 69 175 863 175 874 0 10 -24 13 -95 13 -90 0 -95 -1 -100 -22z"/>
</g>
</svg>
