<?xml version="1.0" standalone="no"?>
<!DOCTYPE svg PUBLIC "-//W3C//DTD SVG 20010904//EN"
 "http://www.w3.org/TR/2001/REC-SVG-20010904/DTD/svg10.dtd">
<svg version="1.0" xmlns="http://www.w3.org/2000/svg"
 width="3486.000000pt" height="552.000000pt" viewBox="0 0 3486.000000 552.000000"
 preserveAspectRatio="xMidYMid meet">

<g transform="translate(0.000000,552.000000) scale(0.100000,-0.100000)"
fill="#000000" stroke="none">
<path d="M18323 5498 c2 -7 181 -478 396 -1047 l392 -1033 -23 -26 c-32 -36
-2019 -2095 -2142 -2219 l-101 -103 631 0 630 0 1112 1150 1112 1150 -24 62
c-13 35 -186 493 -386 1018 -199 525 -371 979 -382 1008 l-19 52 -601 0 c-476
0 -599 -3 -595 -12z"/>
<path d="M20666 5022 c-258 -268 -471 -493 -474 -500 -5 -16 340 -933 349
-929 7 2 1816 1873 1838 1900 13 16 -25 17 -615 16 l-629 0 -469 -487z"/>
<path d="M22944 5243 c-142 -148 -319 -330 -393 -405 l-135 -138 2402 0 2402
0 0 405 0 405 -2009 0 -2008 0 -259 -267z"/>
<path d="M1635 5289 c-106 -13 -292 -55 -380 -86 -332 -117 -599 -345 -747
-638 -213 -420 -129 -817 221 -1054 134 -91 262 -143 626 -256 409 -127 571
-202 713 -330 147 -133 242 -328 242 -495 -1 -295 -241 -564 -605 -677 -87
-26 -98 -27 -305 -27 -240 0 -329 13 -526 79 -197 65 -391 184 -483 294 -70
83 -142 101 -236 57 -116 -54 -176 -183 -129 -281 22 -46 173 -190 265 -252
445 -300 1145 -391 1620 -208 369 141 668 450 776 802 24 80 27 103 27 248 0
125 -4 175 -18 230 -62 231 -193 419 -406 579 -191 144 -405 247 -741 359
-226 75 -276 95 -383 148 -165 84 -283 185 -333 287 -58 118 -40 265 48 401
93 141 213 245 374 322 304 146 680 157 945 27 66 -33 101 -59 160 -118 88
-90 105 -100 162 -100 85 1 170 58 212 142 48 97 29 165 -75 269 -132 132
-311 218 -549 264 -103 20 -365 27 -475 14z"/>
<path d="M3588 5286 c-80 -29 -129 -81 -147 -156 -16 -64 -511 -3611 -511
-3658 0 -52 34 -101 90 -130 103 -54 258 7 302 117 6 14 57 357 113 761 l104
735 68 63 c265 245 651 372 963 318 117 -21 186 -51 243 -109 78 -77 127 -190
127 -291 0 -22 -45 -360 -100 -751 -109 -781 -108 -761 -48 -817 94 -88 278
-47 337 74 15 33 44 215 127 803 118 844 119 856 70 1011 -72 227 -246 377
-521 451 -93 25 -115 27 -305 27 -177 0 -220 -3 -310 -22 -156 -34 -329 -95
-457 -161 -104 -54 -113 -57 -113 -37 0 11 50 374 110 806 60 432 110 802 110
823 0 116 -126 188 -252 143z"/>
<path d="M22185 4038 c-3 -7 -203 -670 -445 -1473 -242 -803 -443 -1468 -446
-1477 -5 -17 17 -18 365 -18 l370 0 30 98 c16 53 73 241 126 417 53 176 110
363 126 416 l29 96 283 6 c407 7 543 31 790 135 142 61 260 138 373 245 229
217 389 490 433 741 16 86 13 241 -4 315 -65 274 -306 444 -702 496 -154 20
-1321 22 -1328 3z m1030 -561 c151 -43 220 -111 239 -235 16 -103 -48 -266
-149 -378 -103 -115 -204 -164 -394 -190 -138 -18 -405 -19 -398 -1 9 25 247
817 247 823 0 13 403 -4 455 -19z"/>
<path d="M24670 3983 c-11 -37 -213 -707 -449 -1488 l-429 -1420 351 -3 c192
-1 352 -1 353 1 2 2 78 250 169 553 91 302 169 558 174 569 10 24 -6 57 306
-638 l219 -487 427 0 428 0 -54 113 c-30 61 -155 323 -279 582 l-224 470 98
27 c553 154 939 594 966 1098 20 365 -179 574 -633 667 -65 13 -188 16 -740
20 l-662 4 -21 -68z m1065 -476 c165 -48 234 -122 243 -263 9 -134 -48 -264
-168 -385 -87 -87 -197 -148 -315 -174 -72 -16 -515 -34 -515 -21 0 6 157 530
226 755 l35 113 222 -5 c152 -3 238 -10 272 -20z"/>
<path d="M9085 3773 c-89 -21 -150 -65 -178 -130 -11 -24 -103 -655 -258
-1762 l-241 -1723 17 -45 c45 -118 229 -137 333 -32 23 22 45 55 51 72 8 26
221 1519 221 1551 0 5 35 -27 78 -71 533 -541 1508 -375 1979 339 89 135 147
267 190 436 23 93 28 350 9 455 -158 839 -1192 1110 -1938 508 -65 -51 -88
-66 -88 -53 0 10 9 83 20 162 22 155 18 197 -20 238 -39 41 -122 68 -175 55z
m1310 -533 c111 -35 192 -85 280 -174 60 -60 90 -100 117 -156 214 -442 -89
-1000 -624 -1148 -47 -12 -101 -17 -208 -17 -133 0 -152 2 -234 29 -402 132
-570 578 -370 979 69 137 185 272 305 354 93 64 229 123 339 148 97 22 304 14
395 -15z"/>
<path d="M26825 2418 c-214 -728 -391 -1329 -393 -1335 -3 -10 79 -13 392 -13
l396 0 0 1335 c0 734 -1 1335 -3 1335 -2 0 -178 -595 -392 -1322z"/>
<path d="M7036 3690 c-580 -73 -1075 -495 -1221 -1042 -103 -386 -10 -764 254
-1029 465 -465 1295 -392 1811 158 251 269 381 601 367 938 -21 484 -347 858
-836 960 -91 19 -283 27 -375 15z m263 -440 c358 -86 569 -425 493 -791 -57
-273 -247 -508 -513 -633 -128 -60 -193 -76 -335 -83 -95 -4 -139 -2 -200 12
-255 56 -444 234 -509 480 -23 88 -21 250 5 350 85 332 363 595 706 669 102
21 252 20 353 -4z"/>
<path d="M13090 3694 c-488 -58 -910 -314 -1119 -679 -131 -228 -192 -453
-192 -710 0 -299 79 -518 255 -704 277 -290 795 -367 1376 -205 182 51 435
159 488 208 57 51 78 148 48 219 -18 44 -78 95 -121 103 -54 10 -95 0 -206
-51 -128 -58 -275 -108 -409 -136 -89 -20 -135 -23 -295 -23 -212 0 -282 13
-413 75 -95 45 -197 150 -245 249 -36 78 -67 193 -67 254 l0 36 888 0 c837 0
889 1 927 19 47 21 99 70 121 114 43 82 39 372 -7 558 -102 408 -430 659 -883
674 -61 2 -127 1 -146 -1z m215 -409 c210 -44 357 -194 415 -421 11 -42 20
-92 20 -111 l0 -33 -741 0 -740 0 6 23 c29 99 173 279 290 362 218 156 521
228 750 180z"/>
<path d="M15810 3694 c-232 -29 -476 -120 -674 -251 -123 -81 -301 -255 -371
-363 -248 -381 -303 -887 -136 -1237 56 -117 108 -189 194 -269 185 -172 438
-256 772 -255 240 1 478 43 720 128 280 99 386 170 400 266 9 59 -6 114 -41
157 -67 78 -139 81 -297 9 -508 -232 -1034 -221 -1266 26 -34 36 -75 93 -92
127 -36 71 -69 193 -69 255 l0 43 878 0 c706 1 884 3 915 14 55 20 103 61 134
114 l28 47 0 205 c0 179 -3 216 -23 293 -89 351 -306 574 -647 663 -81 21
-128 27 -245 29 -80 2 -161 1 -180 -1z m274 -410 c201 -52 343 -204 396 -427
11 -45 20 -92 20 -104 l0 -23 -741 0 -740 0 6 23 c4 12 22 49 40 82 123 221
364 387 650 448 96 21 290 21 369 1z"/>
<path d="M20015 2623 c-236 -245 -429 -451 -427 -457 2 -8 368 -976 407 -1078
7 -17 45 -18 606 -18 329 0 599 2 599 4 0 2 -168 446 -373 987 -206 541 -376
989 -378 996 -2 6 -197 -189 -434 -434z"/>
</g>
</svg>
