<?xml version="1.0" encoding="UTF-8"?>
<!DOCTYPE svg PUBLIC "-//W3C//DTD SVG 1.1//EN" "http://www.w3.org/Graphics/SVG/1.1/DTD/svg11.dtd">
<!-- Creator: CorelDRAW X5 -->
<svg xmlns="http://www.w3.org/2000/svg" xml:space="preserve" width="75.0528mm" height="20.32mm" style="shape-rendering:geometricPrecision; text-rendering:geometricPrecision; image-rendering:optimizeQuality; fill-rule:evenodd; clip-rule:evenodd"
viewBox="0 0 7505 2032"
 xmlns:xlink="http://www.w3.org/1999/xlink">
 <defs>
  <style type="text/css">
   <![CDATA[
    .fil2 {fill:#70161E}
    .fil1 {fill:#921D26}
    .fil8 {fill:#999999}
    .fil4 {fill:#A11F24}
    .fil7 {fill:#B3B3B3}
    .fil0 {fill:#CAC9C9}
    .fil3 {fill:#D5232B}
    .fil6 {fill:#E6E6E6}
    .fil5 {fill:white}
   ]]>
  </style>
 </defs>
 <g id="Layer_x0020_1">
  <metadata id="CorelCorpID_0Corel-Layer"/>
  <path class="fil0" d="M681 1904c373,0 676,29 676,64 0,35 -303,64 -676,64 -373,0 -676,-29 -676,-64 0,-35 303,-64 676,-64z"/>
  <path class="fil1" d="M644 6l1280 543c37,16 54,59 39,95l-543 1280c-16,37 -59,54 -95,39l-1280 -543c-37,-16 -54,-59 -39,-95l543 -1280c16,-37 59,-54 95,-39z"/>
  <path class="fil2" d="M1892 617c3,7 3,14 0,22l-525 1238c-6,14 -23,21 -37,15l-1238 -525c-7,-3 -12,-9 -15,-15l1816 -734z"/>
  <path class="fil3" d="M645 118l1197 508c7,3 11,12 8,19l-508 1197c-3,7 -12,11 -19,8l-1197 -508c-7,-3 -11,-12 -8,-19l508 -1197c3,-7 12,-11 19,-8z"/>
  <path class="fil4" d="M1850 634c1,3 1,7 0,11l-508 1197c-3,7 -12,11 -19,8l-1197 -508c-4,-2 -6,-4 -8,-8l1732 -700z"/>
  <polygon class="fil5" points="1630,670 887,1044 814,713 "/>
  <polygon class="fil6" points="357,1312 1099,938 1173,1269 "/>
  <polygon class="fil7" points="887,1044 1099,938 1115,1008 887,1044 "/>
  <path class="fil3" d="M2947 549l0 227 -52 0c0,0 -89,-13 -89,26 0,39 39,52 94,96 54,44 139,144 139,259 0,115 -76,264 -316,264 -240,0 -220,-26 -220,-26l0 -255c0,0 81,26 155,26 74,0 87,-24 87,-48 0,-24 -251,-176 -251,-329 0,-60 15,-268 288,-268 107,2 166,28 166,28z"/>
  <polygon class="fil3" points="3126,521 3402,521 3402,1421 3126,1421 "/>
  <polygon class="fil3" points="4613,1192 4872,1192 4872,1421 4613,1421 4354,1421 4354,521 4613,521 4872,521 4872,750 4613,750 4613,856 4840,856 4840,1085 4613,1085 "/>
  <path class="fil3" d="M4991 521l11 0 249 0 82 0c191,0 347,156 347,347l0 0c0,191 -140,347 -331,347l-82 0 0 205 -276 0 0 -900zm276 240l0 216 15 0c59,0 108,-49 108,-108l0 0c0,-59 -49,-108 -108,-108l-15 0z"/>
  <path class="fil3" d="M3980 520c119,0 227,46 308,122l-158 201c-36,-42 -90,-69 -150,-69 -108,0 -196,88 -196,196 0,108 88,196 196,196 60,0 114,-27 150,-69l158 201c-80,76 -189,122 -308,122 -248,0 -450,-201 -450,-450 0,-248 201,-450 450,-450z"/>
  <polygon class="fil3" points="6051,521 6523,1421 5579,1421 "/>
  <polygon class="fil6" points="5937,1421 5756,1421 6058,960 6278,1199 "/>
  <polygon class="fil7" points="5933,1150 6058,960 6105,1010 5933,1150 "/>
  <polygon class="fil5" points="6117,648 6182,771 5933,1150 5798,1002 5916,779 "/>
  <polygon class="fil3" points="6620,521 6896,521 7061,521 7061,758 6896,758 6896,1421 6620,1421 6620,758 6456,758 6456,521 "/>
  <path class="fil8" d="M5008 1627l7 -44 -252 0 -7 44 51 0 92 0 109 0zm-269 110l-31 203 260 0 7 -44 -209 0 17 -115 180 0 7 -43 -66 0 -114 0 -51 0zm559 12l184 -166 -66 0 -219 198 30 -198 -51 0 -54 357 51 0 14 -93 75 -67 117 160 57 0 -138 -190 1 -1zm365 195c89,0 149,-42 146,-111 -5,-109 -187,-73 -190,-148 -2,-38 34,-63 93,-63 36,0 71,10 98,29l18 -42c-30,-19 -72,-30 -116,-30 -87,0 -146,42 -143,111 6,114 187,76 191,151 2,39 -36,61 -94,61 -44,0 -90,-16 -118,-41l-20 41c27,25 81,43 136,43zm464 -361l-133 0 -54 357 51 0 16 -108 95 0c103,0 165,-53 160,-144 -3,-66 -53,-105 -136,-105zm-25 205l-87 0 24 -160 86 0c54,0 86,22 88,65 3,63 -38,95 -111,95zm597 -100c-3,-66 -53,-105 -137,-105l-133 0 -54 357 52 0 16 -109 95 0 10 0 68 109 54 0 -71 -116c67,-17 104,-65 101,-136zm-162 100l-88 0 24 -160 86 0c55,0 86,22 88,65 3,63 -38,95 -111,95zm579 -160l7 -44 -252 0 -7 44 51 0 202 0zm-269 110l-31 203 260 0 7 -44 -209 0 17 -115 180 0 7 -43 -180 0 -51 0zm493 207c89,0 149,-42 146,-111 -5,-109 -187,-73 -190,-148 -2,-38 34,-63 93,-63 36,0 71,10 98,29l18 -42c-30,-19 -72,-30 -116,-30 -87,0 -146,42 -143,111 6,114 187,76 191,151 2,39 -36,61 -94,61 -44,0 -90,-16 -118,-41l-20 41c27,25 81,43 136,43z"/>
 </g>
</svg>
