<?xml version="1.0" encoding="UTF-8"?>
<!DOCTYPE svg PUBLIC "-//W3C//DTD SVG 1.1//EN" "http://www.w3.org/Graphics/SVG/1.1/DTD/svg11.dtd">
<!-- Creator: CorelDRAW X5 -->
<svg xmlns="http://www.w3.org/2000/svg" xml:space="preserve" width="99.0209mm" height="20.32mm" style="shape-rendering:geometricPrecision; text-rendering:geometricPrecision; image-rendering:optimizeQuality; fill-rule:evenodd; clip-rule:evenodd"
viewBox="0 0 9902 2032"
 xmlns:xlink="http://www.w3.org/1999/xlink">
 <defs>
  <style type="text/css">
   <![CDATA[
    .str0 {stroke:#332C2B;stroke-width:7.62001}
    .fil0 {fill:none}
    .fil2 {fill:#0632AD}
    .fil1 {fill:red}
   ]]>
  </style>
 </defs>
<symbol id="format_x0020_logo_x0020_utk_x0020_jpg" viewBox="-4385 -8732 18672 19496">
 <rect class="fil0 str0" x="-4381" y="-8728" width="18665" height="19488"/>
</symbol>
 <g id="Layer_x0020_1">
  <metadata id="CorelCorpID_0Corel-Layer"/>
  <path class="fil1" d="M612 1702c159,152 373,244 607,244 234,0 448,-92 608,-244l118 0c-180,204 -439,330 -726,330 -287,0 -546,-126 -726,-330l119 0zm165 0c30,21 62,40 95,57 22,-21 48,-40 73,-57l100 0c-4,2 -9,4 -12,6 -16,7 -31,16 -46,25 -22,13 -43,30 -64,48 91,39 192,60 296,60 104,0 205,-21 296,-60 -21,-18 -42,-34 -64,-48 -15,-9 -30,-18 -46,-25 -3,-1 -7,-4 -12,-6l100 0c0,0 0,0 0,0 25,16 51,36 73,57 33,-18 65,-36 95,-57l80 0c-43,34 -89,65 -138,91 -16,9 -33,18 -49,25 -103,45 -216,70 -335,70 -119,0 -232,-25 -335,-70 -16,-7 -33,-16 -49,-25 -49,-25 -95,-57 -138,-91l80 0z"/>
  <path class="fil1" d="M388 1372c51,126 128,240 225,330l-119 0c-85,-95 -152,-207 -196,-330l91 0zm112 0c40,88 95,167 162,234 36,-40 76,-77 118,-109 -21,-39 -39,-80 -55,-125l48 0c13,34 28,68 45,98 16,-9 31,-19 48,-28l-62 -70 104 0 24 37c12,-4 24,-9 37,-15 -3,-7 -4,-15 -6,-22l39 0c1,3 1,7 3,10 12,-3 25,-7 37,-10l360 0c12,3 25,7 37,10 1,-3 1,-7 3,-10l39 0c-1,7 -3,15 -6,22 54,21 103,46 150,76 16,-30 31,-64 45,-98l48 0c-16,45 -34,86 -55,125 42,31 82,68 118,109 67,-67 122,-146 162,-234l52 0c-45,101 -107,193 -183,271 -10,10 -22,21 -34,31 -10,9 -21,19 -33,28l-80 0c28,-19 57,-42 82,-64 -33,-37 -70,-70 -109,-98 -40,64 -88,119 -141,162l-100 0c-15,-6 -30,-12 -45,-18 -13,-3 -25,-7 -39,-10 -28,-6 -60,-9 -91,-9 -31,0 -62,3 -91,9 -13,3 -25,7 -39,10 -15,6 -30,12 -45,18l-100 0c-54,-43 -101,-98 -141,-162 -39,28 -76,61 -109,98 25,22 54,45 82,64l-80 0c-12,-9 -22,-19 -33,-28 -12,-10 -24,-21 -34,-31 -76,-77 -138,-170 -183,-271l52 0zm1642 0c-45,123 -112,235 -196,330l-118 0c95,-91 173,-204 223,-330l91 0zm-1300 143c42,67 91,122 146,164 24,-13 49,-24 74,-33 -33,-52 -61,-120 -83,-199 -7,3 -15,4 -22,9l10 15 -46 0c-27,13 -54,28 -79,45zm610 164c55,-42 104,-97 146,-164 -43,-28 -89,-51 -137,-68 -22,79 -51,147 -83,199 25,9 51,19 74,33zm-437 -244c22,82 51,150 83,201 39,-10 80,-16 122,-16 42,0 83,6 122,16 33,-51 61,-119 83,-201 -65,-21 -134,-31 -205,-31 -71,0 -140,10 -205,31z"/>
  <path class="fil1" d="M774 876l-31 49 183 9c1,-19 3,-39 4,-58l39 0c-1,19 -1,39 -3,59l254 12 70 -71 86 0 -83 126 77 126 -74 0 -82 -74 -250 10c3,112 15,216 34,306l-39 0c-19,-92 -31,-195 -34,-305l-202 9 181 296 -104 0 -33 -36 -9 0c4,12 7,24 12,36l-48 0c-4,-12 -7,-24 -12,-36l-12 0 -42 -55 37 -3c-1,-10 -4,-19 -6,-30l-15 -15 -65 0 -48 -61 55 -4 -79 -86c-40,0 -77,1 -113,1l-48 3 -55 2 -85 6c-61,3 -116,6 -170,7 -25,0 -86,4 -62,-46 19,-40 65,-95 109,-116 48,-22 80,-37 128,-39 104,-3 320,22 320,22l42 -46 171 0zm733 0c3,25 4,52 4,79l-40 0c0,-27 -1,-54 -3,-79l39 0zm257 0c3,25 6,52 7,79l-46 0c-2,-27 -4,-54 -7,-79l46 0zm289 0c3,25 6,52 9,79l-48 0c-3,-27 -6,-54 -10,-79l49 0zm140 0c3,25 6,52 7,79l-83 0c-2,-27 -4,-54 -9,-79l85 0zm-1897 495c-22,-64 -40,-129 -51,-199l85 0c12,70 31,137 57,199l-91 0zm150 0c-27,-62 -48,-129 -60,-199l48 0c13,70 36,137 64,199l-52 0zm592 0c58,-15 118,-22 180,-22 62,0 122,7 180,22l-360 0zm400 0c18,-88 30,-187 33,-293l40 0c-3,106 -15,204 -34,293l-39 0zm228 0c33,-88 54,-187 60,-293l46 0c-6,104 -27,204 -58,293l-48 0zm272 0c42,-89 68,-189 76,-293l48 0c-7,104 -33,202 -71,293l-52 0zm112 0c37,-91 60,-190 67,-293l83 0c-6,103 -27,201 -59,293l-91 0zm-543 -378l998 0 0 46 -998 0 0 -46z"/>
  <path class="fil1" d="M603 876l30 -34 -57 -4 48 -61 67 0c3,-15 7,-30 10,-45l-27 -1 42 -55 3 0c16,-51 37,-97 59,-138 -42,-33 -82,-68 -118,-109 -106,106 -183,242 -217,396l-49 0c85,-390 421,-680 824,-680 419,0 769,317 835,732l-49 0c-28,-174 -110,-330 -228,-448 -36,40 -76,76 -118,109 52,97 89,213 106,339l-46 0c-15,-118 -49,-223 -97,-314 -48,31 -97,57 -150,76 18,73 30,152 36,238l-39 0c-6,-82 -18,-158 -33,-226 -68,22 -141,34 -217,34 -76,0 -149,-12 -217,-34 -15,68 -27,144 -33,226l-39 0c6,-86 18,-165 36,-238 -12,-4 -24,-9 -34,-13l-158 251 -171 0zm687 0l3 -4 85 0 -1 4 -86 0zm818 0c-65,-446 -439,-788 -890,-788 -433,0 -794,315 -881,736l-85 0c86,-470 486,-824 965,-824 497,0 907,381 974,876l-85 0zm-1305 -384c40,-64 88,-119 141,-161 -25,-18 -51,-36 -73,-57 -64,31 -123,73 -177,120 33,36 70,68 109,97zm183 -192c15,9 30,18 46,25 18,9 37,16 58,22 12,4 24,7 37,10 30,6 60,10 91,10 31,0 61,-4 91,-10 13,-3 25,-6 37,-10 21,-6 40,-13 58,-22 16,-7 31,-16 46,-25 22,-15 43,-31 64,-49 -91,-37 -192,-58 -296,-58 -104,0 -205,21 -296,58 21,18 42,34 64,49zm0 55c-55,42 -104,97 -146,164 19,12 37,22 58,33l9 -10 76 0 -24 39 18 7c22,-80 52,-147 85,-199 -27,-9 -52,-19 -76,-33zm-171 207c-18,36 -34,73 -49,113l19 0 77 -85c-16,-9 -31,-18 -48,-28zm781 -43c-42,-67 -91,-122 -146,-164 -24,13 -49,24 -76,33 33,52 62,119 85,199 48,-18 94,-42 137,-68zm-104 -187c54,42 101,97 141,161 39,-28 76,-61 109,-97 -54,-48 -113,-89 -177,-120 -22,21 -48,39 -73,57zm-396 67c-33,49 -61,118 -83,201 65,21 134,31 205,31 71,0 140,-10 205,-31 -22,-83 -51,-152 -83,-201 -39,10 -80,15 -122,15 -42,0 -83,-4 -122,-15z"/>
  <path class="fil2" d="M8275 1843l204 -1242 231 0c-140,-40 -235,-119 -235,-211 0,-131 195,-238 437,-238 241,0 436,107 436,238 0,92 -95,171 -235,211l183 0 -205 1242 -815 0zm-2484 0l295 -1691 817 0 -296 1691 -815 0zm-1049 0l204 -1242 232 0c-140,-40 -237,-119 -237,-211 0,-131 196,-238 437,-238 241,0 437,107 437,238 0,92 -97,171 -237,211l183 0 -205 1242 -815 0zm-1538 0l219 -1227 -524 0 83 -478 1827 0 -88 478 -482 0 -220 1227 -815 0z"/>
  <path class="fil1" d="M9649 272l0 70 28 0c18,0 31,-1 39,-7 7,-6 12,-15 12,-27 0,-12 -4,-21 -13,-27 -7,-6 -21,-9 -40,-9l-25 0zm-59 -39l95 0c34,0 61,6 79,18 18,12 25,30 25,54 0,16 -4,30 -13,42 -10,10 -22,19 -40,22l55 110 -65 0 -48 -100 -28 0 0 100 -59 0 0 -245zm91 -57c-25,0 -48,4 -70,13 -21,9 -40,21 -58,39 -18,18 -31,39 -42,61 -9,22 -15,46 -15,70 0,25 6,48 15,70 9,22 22,42 39,59 18,18 37,31 61,40 22,10 46,15 70,15 24,0 46,-4 68,-13 24,-10 43,-22 62,-40 16,-16 30,-36 39,-58 10,-22 15,-45 15,-68 0,-27 -4,-51 -13,-73 -9,-22 -22,-42 -39,-59 -18,-18 -39,-33 -61,-42 -22,-9 -46,-13 -71,-13zm0 -37c30,0 60,6 86,16 27,12 51,28 71,51 21,19 37,43 48,70 10,27 16,55 16,85 0,30 -6,58 -18,85 -10,27 -27,51 -48,71 -21,21 -46,36 -73,48 -27,10 -55,16 -83,16 -30,0 -58,-6 -85,-18 -27,-10 -51,-27 -73,-49 -19,-21 -36,-45 -46,-70 -10,-27 -16,-55 -16,-83 0,-21 3,-40 7,-60 6,-19 13,-37 25,-55 19,-34 46,-61 79,-79 33,-19 68,-28 109,-28z"/>
  <polygon class="fil1" points="7418,176 8364,176 7559,995 8083,1843 7100,1843 6601,1026 "/>
 </g>
</svg>
